<svg width="352" height="70" viewBox="0 0 352 70" fill="none" xmlns="http://www.w3.org/2000/svg">
<g filter="url(#filter0_d_414_12)">
<path d="M14.5844 44C13.8844 44 13.2677 43.75 12.7344 43.25C12.2344 42.75 11.9844 42.1333 11.9844 41.4V7.55C11.9844 6.81666 12.2344 6.2 12.7344 5.7C13.2677 5.2 13.8844 4.95 14.5844 4.95C15.3177 4.95 15.9344 5.2 16.4344 5.7C16.9344 6.2 17.1844 6.81666 17.1844 7.55V22.55L33.7344 6C34.1344 5.6 34.501 5.33333 34.8344 5.2C35.1677 5.03333 35.5177 4.95 35.8844 4.95C36.7177 4.95 37.3177 5.2 37.6844 5.7C38.051 6.2 38.1844 6.8 38.0844 7.5C37.9844 8.16667 37.6677 8.78333 37.1344 9.35L24.3844 22.15L37.3844 39.85C37.7844 40.4167 37.951 41.0333 37.8844 41.7C37.8177 42.3333 37.5844 42.8833 37.1844 43.35C36.7844 43.7833 36.251 44 35.5844 44C34.651 44 33.9344 43.6333 33.4344 42.9L20.7844 25.75L17.1844 29.35V41.4C17.1844 42.1333 16.9344 42.75 16.4344 43.25C15.9344 43.75 15.3177 44 14.5844 44ZM53.2555 44.2C50.8221 44.2 48.6388 43.6 46.7055 42.4C44.7721 41.1667 43.2388 39.5167 42.1055 37.45C41.0055 35.35 40.4555 32.9833 40.4555 30.35C40.4555 27.7167 41.0555 25.35 42.2555 23.25C43.4888 21.15 45.1388 19.5 47.2055 18.3C49.3055 17.0667 51.6555 16.45 54.2555 16.45C56.8555 16.45 59.1888 17.0667 61.2555 18.3C63.3221 19.5 64.9555 21.15 66.1555 23.25C67.3888 25.35 68.0055 27.7167 68.0055 30.35H66.0555C66.0555 32.9833 65.4888 35.35 64.3555 37.45C63.2555 39.5167 61.7388 41.1667 59.8055 42.4C57.8721 43.6 55.6888 44.2 53.2555 44.2ZM54.2555 39.7C55.9555 39.7 57.4721 39.3 58.8055 38.5C60.1388 37.6667 61.1888 36.55 61.9555 35.15C62.7221 33.7167 63.1055 32.1167 63.1055 30.35C63.1055 28.55 62.7221 26.95 61.9555 25.55C61.1888 24.1167 60.1388 23 58.8055 22.2C57.4721 21.3667 55.9555 20.95 54.2555 20.95C52.5888 20.95 51.0721 21.3667 49.7055 22.2C48.3721 23 47.3055 24.1167 46.5055 25.55C45.7388 26.95 45.3555 28.55 45.3555 30.35C45.3555 32.1167 45.7388 33.7167 46.5055 35.15C47.3055 36.55 48.3721 37.6667 49.7055 38.5C51.0721 39.3 52.5888 39.7 54.2555 39.7ZM65.4555 44.05C64.7221 44.05 64.1055 43.8167 63.6055 43.35C63.1388 42.85 62.9055 42.2333 62.9055 41.5V33.85L63.8555 28.55L68.0055 30.35V41.5C68.0055 42.2333 67.7555 42.85 67.2555 43.35C66.7888 43.8167 66.1888 44.05 65.4555 44.05ZM85.5457 44C83.879 44 82.379 43.5833 81.0457 42.75C79.7124 41.8833 78.6624 40.7167 77.8957 39.25C77.129 37.7833 76.7457 36.1333 76.7457 34.3V10.45C76.7457 9.71667 76.979 9.11667 77.4457 8.65C77.9124 8.18333 78.5124 7.95 79.2457 7.95C79.979 7.95 80.579 8.18333 81.0457 8.65C81.5124 9.11667 81.7457 9.71667 81.7457 10.45V34.3C81.7457 35.6333 82.1124 36.75 82.8457 37.65C83.579 38.55 84.479 39 85.5457 39H87.2457C87.8457 39 88.3457 39.2333 88.7457 39.7C89.179 40.1667 89.3957 40.7667 89.3957 41.5C89.3957 42.2333 89.1124 42.8333 88.5457 43.3C88.0124 43.7667 87.3124 44 86.4457 44H85.5457ZM74.4457 21.95C73.7457 21.95 73.179 21.75 72.7457 21.35C72.3124 20.95 72.0957 20.45 72.0957 19.85C72.0957 19.1833 72.3124 18.65 72.7457 18.25C73.179 17.85 73.7457 17.65 74.4457 17.65H85.9957C86.6957 17.65 87.2624 17.85 87.6957 18.25C88.129 18.65 88.3457 19.1833 88.3457 19.85C88.3457 20.45 88.129 20.95 87.6957 21.35C87.2624 21.75 86.6957 21.95 85.9957 21.95H74.4457ZM98.2141 34.05C97.4807 34.05 96.8641 33.8167 96.3641 33.35C95.8974 32.85 95.6641 32.2333 95.6641 31.5V7.5C95.6641 6.73333 95.8974 6.11667 96.3641 5.65C96.8641 5.18333 97.4807 4.95 98.2141 4.95C98.9807 4.95 99.5974 5.18333 100.064 5.65C100.531 6.11667 100.764 6.73333 100.764 7.5V31.5C100.764 32.2333 100.531 32.85 100.064 33.35C99.5974 33.8167 98.9807 34.05 98.2141 34.05ZM118.764 44.05C118.031 44.05 117.414 43.8167 116.914 43.35C116.447 42.85 116.214 42.2333 116.214 41.5V29.2C116.214 27.3 115.864 25.75 115.164 24.55C114.464 23.35 113.514 22.4667 112.314 21.9C111.147 21.3 109.797 21 108.264 21C106.864 21 105.597 21.2833 104.464 21.85C103.331 22.4167 102.431 23.1833 101.764 24.15C101.097 25.0833 100.764 26.1667 100.764 27.4H97.6141C97.6141 25.3 98.1141 23.4333 99.1141 21.8C100.147 20.1333 101.547 18.8167 103.314 17.85C105.081 16.8833 107.064 16.4 109.264 16.4C111.564 16.4 113.614 16.9 115.414 17.9C117.247 18.8667 118.681 20.3 119.714 22.2C120.781 24.1 121.314 26.4333 121.314 29.2V41.5C121.314 42.2333 121.064 42.85 120.564 43.35C120.097 43.8167 119.497 44.05 118.764 44.05ZM98.2141 44.05C97.4807 44.05 96.8641 43.8167 96.3641 43.35C95.8974 42.85 95.6641 42.2333 95.6641 41.5V19.2C95.6641 18.4333 95.8974 17.8167 96.3641 17.35C96.8641 16.8833 97.4807 16.65 98.2141 16.65C98.9807 16.65 99.5974 16.8833 100.064 17.35C100.531 17.8167 100.764 18.4333 100.764 19.2V41.5C100.764 42.2333 100.531 42.85 100.064 43.35C99.5974 43.8167 98.9807 44.05 98.2141 44.05ZM134.695 56C134.362 56 133.962 55.9 133.495 55.7C132.028 55.0333 131.628 53.9833 132.295 52.55L147.545 18.1C148.212 16.7 149.262 16.3 150.695 16.9C152.195 17.5333 152.612 18.5833 151.945 20.05L136.645 54.45C136.245 55.4833 135.595 56 134.695 56ZM140.595 42.9C139.962 43.1667 139.362 43.2 138.795 43C138.262 42.7667 137.828 42.3333 137.495 41.7L126.045 19.95C125.712 19.3167 125.662 18.7167 125.895 18.15C126.162 17.55 126.612 17.1167 127.245 16.85C127.878 16.5833 128.478 16.5667 129.045 16.8C129.612 17 130.045 17.4167 130.345 18.05L141.295 39.8C141.628 40.4333 141.745 41.05 141.645 41.65C141.578 42.2167 141.228 42.6333 140.595 42.9ZM184.296 44.5C182.163 44.5 180.13 44.1667 178.196 43.5C176.263 42.8333 174.58 41.9 173.146 40.7C171.713 39.5 170.663 38.1167 169.996 36.55C169.663 35.85 169.663 35.2 169.996 34.6C170.363 34 170.963 33.6167 171.796 33.45C172.396 33.3167 172.98 33.4167 173.546 33.75C174.146 34.05 174.596 34.5167 174.896 35.15C175.296 35.9833 175.946 36.75 176.846 37.45C177.78 38.15 178.896 38.7167 180.196 39.15C181.496 39.5833 182.863 39.8 184.296 39.8C185.896 39.8 187.363 39.55 188.696 39.05C190.063 38.55 191.163 37.8333 191.996 36.9C192.83 35.9333 193.246 34.75 193.246 33.35C193.246 31.5833 192.546 30 191.146 28.6C189.78 27.2 187.513 26.3333 184.346 26C180.213 25.6 176.963 24.3833 174.596 22.35C172.23 20.3167 171.046 17.8 171.046 14.8C171.046 12.6 171.663 10.7333 172.896 9.2C174.13 7.66666 175.796 6.5 177.896 5.7C180.03 4.9 182.396 4.5 184.996 4.5C187.03 4.5 188.796 4.78333 190.296 5.35C191.83 5.91666 193.163 6.7 194.296 7.7C195.43 8.7 196.413 9.88333 197.246 11.25C197.713 11.9833 197.896 12.6833 197.796 13.35C197.73 13.9833 197.413 14.4833 196.846 14.85C196.213 15.25 195.53 15.3333 194.796 15.1C194.063 14.8667 193.513 14.4333 193.146 13.8C192.613 12.8333 191.963 12.0167 191.196 11.35C190.43 10.6833 189.53 10.1667 188.496 9.8C187.463 9.4 186.246 9.2 184.846 9.2C182.38 9.16667 180.313 9.63333 178.646 10.6C176.98 11.5333 176.146 12.9833 176.146 14.95C176.146 15.95 176.396 16.9167 176.896 17.85C177.43 18.75 178.38 19.5333 179.746 20.2C181.146 20.8667 183.146 21.3333 185.746 21.6C189.713 22 192.796 23.2167 194.996 25.25C197.23 27.25 198.346 29.9 198.346 33.2C198.346 35.1 197.946 36.75 197.146 38.15C196.38 39.55 195.33 40.7333 193.996 41.7C192.696 42.6333 191.196 43.3333 189.496 43.8C187.83 44.2667 186.096 44.5 184.296 44.5ZM208.37 55.7C207.637 55.7 207.02 55.45 206.52 54.95C206.054 54.4833 205.82 53.8833 205.82 53.15V30.35C205.854 27.7167 206.47 25.35 207.67 23.25C208.87 21.15 210.504 19.5 212.57 18.3C214.637 17.0667 216.97 16.45 219.57 16.45C222.204 16.45 224.554 17.0667 226.62 18.3C228.687 19.5 230.32 21.15 231.52 23.25C232.754 25.35 233.37 27.7167 233.37 30.35C233.37 32.9833 232.804 35.35 231.67 37.45C230.57 39.5167 229.054 41.1667 227.12 42.4C225.187 43.6 223.004 44.2 220.57 44.2C218.604 44.2 216.787 43.8 215.12 43C213.487 42.1667 212.087 41.05 210.92 39.65V53.15C210.92 53.8833 210.687 54.4833 210.22 54.95C209.754 55.45 209.137 55.7 208.37 55.7ZM219.57 39.7C221.27 39.7 222.787 39.3 224.12 38.5C225.454 37.6667 226.504 36.55 227.27 35.15C228.07 33.7167 228.47 32.1167 228.47 30.35C228.47 28.55 228.07 26.95 227.27 25.55C226.504 24.1167 225.454 23 224.12 22.2C222.787 21.3667 221.27 20.95 219.57 20.95C217.904 20.95 216.387 21.3667 215.02 22.2C213.687 23 212.637 24.1167 211.87 25.55C211.104 26.95 210.72 28.55 210.72 30.35C210.72 32.1167 211.104 33.7167 211.87 35.15C212.637 36.55 213.687 37.6667 215.02 38.5C216.387 39.3 217.904 39.7 219.57 39.7ZM252.377 44.2C249.943 44.2 247.76 43.6 245.827 42.4C243.893 41.1667 242.36 39.5167 241.227 37.45C240.127 35.35 239.577 32.9833 239.577 30.35C239.577 27.7167 240.177 25.35 241.377 23.25C242.61 21.15 244.26 19.5 246.327 18.3C248.427 17.0667 250.777 16.45 253.377 16.45C255.977 16.45 258.31 17.0667 260.377 18.3C262.443 19.5 264.077 21.15 265.277 23.25C266.51 25.35 267.127 27.7167 267.127 30.35H265.177C265.177 32.9833 264.61 35.35 263.477 37.45C262.377 39.5167 260.86 41.1667 258.927 42.4C256.993 43.6 254.81 44.2 252.377 44.2ZM253.377 39.7C255.077 39.7 256.593 39.3 257.927 38.5C259.26 37.6667 260.31 36.55 261.077 35.15C261.843 33.7167 262.227 32.1167 262.227 30.35C262.227 28.55 261.843 26.95 261.077 25.55C260.31 24.1167 259.26 23 257.927 22.2C256.593 21.3667 255.077 20.95 253.377 20.95C251.71 20.95 250.193 21.3667 248.827 22.2C247.493 23 246.427 24.1167 245.627 25.55C244.86 26.95 244.477 28.55 244.477 30.35C244.477 32.1167 244.86 33.7167 245.627 35.15C246.427 36.55 247.493 37.6667 248.827 38.5C250.193 39.3 251.71 39.7 253.377 39.7ZM264.577 44.05C263.843 44.05 263.227 43.8167 262.727 43.35C262.26 42.85 262.027 42.2333 262.027 41.5V33.85L262.977 28.55L267.127 30.35V41.5C267.127 42.2333 266.877 42.85 266.377 43.35C265.91 43.8167 265.31 44.05 264.577 44.05ZM277.167 26.9C277.167 24.9 277.65 23.1167 278.617 21.55C279.617 19.95 280.95 18.6833 282.617 17.75C284.283 16.8167 286.117 16.35 288.117 16.35C290.117 16.35 291.6 16.6833 292.567 17.35C293.567 17.9833 293.95 18.75 293.717 19.65C293.617 20.1167 293.417 20.4833 293.117 20.75C292.85 20.9833 292.533 21.1333 292.167 21.2C291.8 21.2667 291.4 21.25 290.967 21.15C288.833 20.7167 286.917 20.6833 285.217 21.05C283.517 21.4167 282.167 22.1 281.167 23.1C280.2 24.1 279.717 25.3667 279.717 26.9H277.167ZM277.217 44C276.417 44 275.8 43.8 275.367 43.4C274.933 42.9667 274.717 42.3333 274.717 41.5V19.15C274.717 18.35 274.933 17.7333 275.367 17.3C275.8 16.8667 276.417 16.65 277.217 16.65C278.05 16.65 278.667 16.8667 279.067 17.3C279.5 17.7 279.717 18.3167 279.717 19.15V41.5C279.717 42.3 279.5 42.9167 279.067 43.35C278.667 43.7833 278.05 44 277.217 44ZM303.833 34L300.733 30.6L316.083 16.9C316.583 16.4333 317.133 16.2167 317.733 16.25C318.367 16.2833 318.9 16.55 319.333 17.05C319.8 17.55 320.017 18.1 319.983 18.7C319.95 19.3 319.683 19.8333 319.183 20.3L303.833 34ZM301.483 44C300.75 44 300.15 43.7833 299.683 43.35C299.25 42.8833 299.033 42.2833 299.033 41.55V7.4C299.033 6.66667 299.25 6.08333 299.683 5.65C300.15 5.18333 300.75 4.95 301.483 4.95C302.217 4.95 302.8 5.18333 303.233 5.65C303.7 6.08333 303.933 6.66667 303.933 7.4V41.55C303.933 42.2833 303.7 42.8833 303.233 43.35C302.8 43.7833 302.217 44 301.483 44ZM319.333 43.75C318.8 44.1833 318.2 44.3667 317.533 44.3C316.9 44.2667 316.367 43.9833 315.933 43.45L305.783 30.9L309.283 27.6L319.683 40.4C320.117 40.9333 320.3 41.5167 320.233 42.15C320.2 42.75 319.9 43.2833 319.333 43.75Z" fill="#2D2D2D"/>
<path d="M6 51H127" stroke="#6F2DBD" stroke-width="4" stroke-linecap="round"/>
<path d="M144 51L201 51" stroke="#6F2DBD" stroke-width="4" stroke-linecap="round"/>
<path d="M216 49C214.895 49 214 49.8954 214 51C214 52.1046 214.895 53 216 53V49ZM326.333 51C326.333 56.891 331.109 61.6667 337 61.6667C342.891 61.6667 347.667 56.891 347.667 51C347.667 45.109 342.891 40.3333 337 40.3333C331.109 40.3333 326.333 45.109 326.333 51ZM216 53H337V49H216V53Z" fill="#FFD35E"/>
</g>
<defs>
<filter id="filter0_d_414_12" x="0" y="4.5" width="351.667" height="65.1666" filterUnits="userSpaceOnUse" color-interpolation-filters="sRGB">
<feFlood flood-opacity="0" result="BackgroundImageFix"/>
<feColorMatrix in="SourceAlpha" type="matrix" values="0 0 0 0 0 0 0 0 0 0 0 0 0 0 0 0 0 0 127 0" result="hardAlpha"/>
<feOffset dy="4"/>
<feGaussianBlur stdDeviation="2"/>
<feComposite in2="hardAlpha" operator="out"/>
<feColorMatrix type="matrix" values="0 0 0 0 0 0 0 0 0 0 0 0 0 0 0 0 0 0 0.25 0"/>
<feBlend mode="normal" in2="BackgroundImageFix" result="effect1_dropShadow_414_12"/>
<feBlend mode="normal" in="SourceGraphic" in2="effect1_dropShadow_414_12" result="shape"/>
</filter>
</defs>
</svg>
